{"title":"Kill'em All 2012 DVDrip English Klam","uid":7942666,"size":1308730555,"categoryP":"video","categoryS":"movies","magnet":"?xt=urn:btih:52e3f5352f6e1c8bf28dabe4b15c2035eccd253e&amp;dn=Kill%27em+All+2012+DVDrip+English+Klam&amp;tr=udp%3A%2F%2Ftracker.openbittorrent.com%3A80&amp;tr=udp%3A%2F%2Fopen.demonii.com%3A1337&amp;tr=udp%3A%2F%2Ftracker.coppersurfer.tk%3A6969&amp;tr=udp%3A%2F%2Fexodus.desync.com%3A6969","seeders":0,"leechers":0,"uploader":"Klambake","files":-1,"time":1356032930,"description":"With: Chia Hui Liu, Joe Lewis and Ammara Siripong\n\nEen aantal internationale huurmoordenaars is gevangen genomen en opgesloten in een hightech bunker die bekend staat als de &quot;Moordkamer&quot;. Om vrij te komen uit deze betonnen hel moeten ze met elkaar duelleren, het opnemen tegen dodelijke ninja's en de strijd aangaan met bendes van gemaskerde maniakken. Wanneer ze dit alles overleven moeten ze het opnemen tegen Snakehead, een gestoorde moordenaar die zich door niemand laat tegenhouden om ze allemaal te vermoorden.\n\nCaptured international assassins are locked up inside a high-tech bunker known as the Killing Chamber...\n &lt;a href=&quot;\nhttp://www.imdb.com/title/tt1928335&quot; rel=&quot;nofollow&quot; target=&quot;_NEW&quot;&gt;\nhttp://www.imdb.com/title/tt1928335&lt;/a&gt;\t\n\n------------------------ Dutch Friends ------------------------\n---------------------------------------------------------------\n- Bezoek ook eens mijn vrienden op: &lt;a href=&quot; http://www.Film-Test.nl&quot; rel=&quot;nofollow&quot; target=&quot;_NEW&quot;&gt; http://www.Film-Test.nl&lt;/a&gt; --\n----- voor mijn Nederlandse Sync. ondertitels ---- en meer ----\n------- http://www.Film-Test.nl ---- Over Films en meer -------\n---------------------------------------------------------------\n\nGeneral:\n\nComplete name                    : Kill Them AllKill Them All.avi\nFormat                           : AVI\nFormat/Info                      : Audio Video Interleave\nFile size                        : 1.22 GiB\nDuration                         : 1h 26mn\nOverall bit rate                 : 2 024 Kbps\n\nVideo:\n\nFormat                           : MPEG-4 Visual\nFormat profile                   : Simple@L3\nFormat settings, BVOP            : No\nFormat settings, QPel            : No\nFormat settings, GMC             : No warppoints\nFormat settings, Matrix          : Default (H.263)\nCodec ID                         : XVID\nCodec ID/Hint                    : XviD\nDuration                         : 1h 26mn\nBit rate                         : 1 629 Kbps\nWidth                            : 704 pixels\nHeight                           : 396 pixels\nDisplay aspect ratio             : 16:9\nFrame rate                       : 23.976 fps\nColor space                      : YUV\nChroma subsampling               : 4:2:0\nBit depth                        : 8 bits\nScan type                        : Progressive\nCompression mode                 : Lossy\nBits/(Pixel*Frame)               : 0.244\nStream size                      : 1 005 MiB (80%)\nWriting library                  : XviD 1.1.2 (UTC 2006-11-01)\n\nAudio:\n\nFormat                           : AC-3\nFormat/Info                      : Audio Coding 3\nMode extension                   : CM (complete main)\nCodec ID                         : 2000\nDuration                         : 1h 26mn\nBit rate mode                    : Constant\nBit rate                         : 384 Kbps\nChannel(s)                       : 6 channels\nChannel positions                : Front: L C R, Side: L R, LFE\nSampling rate                    : 48.0 KHz\nBit depth                        : 16 bits\nCompression mode                 : Lossy\nStream size                      : 237 MiB (19%)\nAlignment                        : Aligned on interleaves\nInterleave, duration             : 32 ms (0.77 video frame)","torrent":{"xt":"urn:btih:52e3f5352f6e1c8bf28dabe4b15c2035eccd253e","amp;dn":"Kill%27em+All+2012+DVDrip+English+Klam","amp;tr":["udp%3A%2F%2Ftracker.openbittorrent.com%3A80","udp%3A%2F%2Fopen.demonii.com%3A1337","udp%3A%2F%2Ftracker.coppersurfer.tk%3A6969","udp%3A%2F%2Fexodus.desync.com%3A6969"],"infoHash":"52e3f5352f6e1c8bf28dabe4b15c2035eccd253e","infoHashBuffer":{"type":"Buffer","data":[82,227,245,53,47,110,28,139,242,141,171,228,177,92,32,53,236,205,37,62]},"announce":[],"urlList":[]}}